<svg width="62" height="61" viewBox="0 0 62 61" fill="none" xmlns="http://www.w3.org/2000/svg">
<mask id="mask0_4564_194" style="mask-type:luminance" maskUnits="userSpaceOnUse" x="0" y="0" width="62" height="61">
<path fill-rule="evenodd" clip-rule="evenodd" d="M0.755981 0H61.6121V60.8125H0.755981V0Z" fill="white"/>
</mask>
<g mask="url(#mask0_4564_194)">
<path fill-rule="evenodd" clip-rule="evenodd" d="M61.612 30.4061C61.612 47.1993 47.989 60.8125 31.1842 60.8125C14.3789 60.8125 0.755859 47.1993 0.755859 30.4061C0.755859 13.6132 14.3789 0 31.1842 0C47.989 0 61.612 13.6132 61.612 30.4061" fill="#C71C1C"/>
</g>
<mask id="mask1_4564_194" style="mask-type:luminance" maskUnits="userSpaceOnUse" x="0" y="1" width="60" height="60">
<path fill-rule="evenodd" clip-rule="evenodd" d="M0.755981 1.25928H59.3178V60.999H0.755981V1.25928Z" fill="white"/>
</mask>
<g mask="url(#mask1_4564_194)">
<path fill-rule="evenodd" clip-rule="evenodd" d="M59.3179 31.1294C59.3179 47.6259 46.2084 60.999 30.0372 60.999C13.8659 60.999 0.755981 47.6259 0.755981 31.1294C0.755981 14.6324 13.8659 1.25928 30.0372 1.25928C46.2084 1.25928 59.3179 14.6324 59.3179 31.1294" fill="#FA4141"/>
</g>
<path fill-rule="evenodd" clip-rule="evenodd" d="M55.756 31.3127C55.756 45.3958 44.3394 56.8125 30.2564 56.8125C16.173 56.8125 4.75598 45.3958 4.75598 31.3127C4.75598 17.2292 16.173 5.8125 30.2564 5.8125C44.3394 5.81295 55.756 17.2292 55.756 31.3127" fill="#FF7A7A"/>
<path fill-rule="evenodd" clip-rule="evenodd" d="M54.756 31.3127C54.756 44.8438 44.0111 55.8125 30.7562 55.8125C17.5013 55.8125 6.75598 44.8438 6.75598 31.3127C6.75598 17.7817 17.5013 6.8125 30.7562 6.8125C44.0111 6.81295 54.756 17.7817 54.756 31.3127" fill="#CF0C0C"/>
<path fill-rule="evenodd" clip-rule="evenodd" d="M37.756 20.3272C37.756 23.9256 35.4029 29.8125 29.9567 29.8125C24.511 29.8125 22.756 23.9256 22.756 20.3272C22.756 16.7292 26.1138 13.8125 30.2556 13.8125C34.3982 13.8125 37.756 16.7292 37.756 20.3272" fill="#FA4141"/>
<path fill-rule="evenodd" clip-rule="evenodd" d="M37.5778 43.6338C34.3169 42.7158 29.5953 38.7939 31.0155 33.1939C32.4357 27.5939 38.2291 27.2914 41.4899 28.2094C44.7512 29.1278 46.5191 33.3247 45.4387 37.5835C44.3583 41.8433 40.8391 44.5517 37.5778 43.6338" fill="#FA4141"/>
<path fill-rule="evenodd" clip-rule="evenodd" d="M22.9341 42.6338C26.1949 41.7154 30.917 37.7939 29.4963 32.194C28.0765 26.5941 22.2832 26.2912 19.0219 27.2096C15.7606 28.1275 13.9931 32.3243 15.0731 36.5836C16.1535 40.8433 19.6732 43.5517 22.9341 42.6338" fill="#FA4141"/>
<path fill-rule="evenodd" clip-rule="evenodd" d="M49.0085 13.8125L31.756 29.8125L51.756 17.4865L49.0085 13.8125Z" fill="#FF7A7A"/>
<path fill-rule="evenodd" clip-rule="evenodd" d="M29.7449 32.8125L32.756 55.7172L25.756 55.8125L29.7449 32.8125Z" fill="#FF7A7A"/>
<path fill-rule="evenodd" clip-rule="evenodd" d="M28.756 29.8125L7.75598 21.5465L10.8477 15.8125L28.756 29.8125Z" fill="#FF7A7A"/>
<path fill-rule="evenodd" clip-rule="evenodd" d="M33.756 31.3123C33.756 33.245 31.9648 34.8125 29.7558 34.8125C27.5467 34.8125 25.756 33.245 25.756 31.3123C25.756 29.3796 27.5467 27.8125 29.7558 27.8125C31.9648 27.8125 33.756 29.3796 33.756 31.3123" fill="#FF7A7A"/>
<path fill-rule="evenodd" clip-rule="evenodd" d="M29.7161 11.8181C29.864 12.462 29.5908 13.7109 29.0598 13.8067C28.5284 13.902 27.9404 12.808 27.7928 12.1644C27.6449 11.5205 27.9558 10.9209 28.4872 10.8255C29.0182 10.7297 29.5685 11.1745 29.7161 11.8181" fill="#FF7A7A"/>
<path fill-rule="evenodd" clip-rule="evenodd" d="M33.7405 12.1092C33.6446 12.7625 32.9259 13.8705 32.3852 13.8101C31.8446 13.7498 31.6864 12.5444 31.7823 11.8914C31.8779 11.238 32.3943 10.7573 32.935 10.8176C33.4756 10.8779 33.8365 11.4562 33.7405 12.1092" fill="#FF7A7A"/>
<path fill-rule="evenodd" clip-rule="evenodd" d="M37.5726 13.5105C37.2727 14.1446 36.3382 15.0218 35.945 14.7674C35.5515 14.513 35.8482 13.2235 36.148 12.5894C36.4483 11.9552 37.0099 11.6474 37.4031 11.9018C37.7966 12.1562 37.8725 12.8763 37.5726 13.5105" fill="#FF7A7A"/>
<path fill-rule="evenodd" clip-rule="evenodd" d="M25.7163 12.8183C25.8638 13.4621 25.5906 14.7109 25.0596 14.8067C24.5282 14.902 23.9402 13.8081 23.7927 13.1642C23.6451 12.5207 23.9561 11.9212 24.487 11.8254C25.018 11.73 25.5683 12.1744 25.7163 12.8183" fill="#FF7A7A"/>
<path fill-rule="evenodd" clip-rule="evenodd" d="M48.4804 37.8021C47.8268 37.7232 46.708 37.0316 46.7576 36.4868C46.8072 35.9416 48.0062 35.751 48.6595 35.8294C49.3123 35.9083 49.8021 36.4136 49.7525 36.9583C49.7029 37.5031 49.1337 37.881 48.4804 37.8021" fill="#FF7A7A"/>
<path fill-rule="evenodd" clip-rule="evenodd" d="M46.1441 41.6694C45.5031 41.3973 44.5733 40.4788 44.7873 40.0511C45.0016 39.6234 46.2791 39.8488 46.9197 40.1209C47.5607 40.3922 47.9068 40.9595 47.6925 41.3868C47.4782 41.8145 46.7847 41.9411 46.1441 41.6694" fill="#FF7A7A"/>
<path fill-rule="evenodd" clip-rule="evenodd" d="M44.343 45.277C43.9571 44.7132 43.5644 43.3085 43.8589 42.9186C44.1535 42.5282 45.0239 43.2996 45.4101 43.8638C45.7961 44.4272 45.8704 45.2013 45.5755 45.5916C45.2809 45.982 44.729 45.8413 44.343 45.277" fill="#FF7A7A"/>
<path fill-rule="evenodd" clip-rule="evenodd" d="M48.4803 33.8021C47.8269 33.7232 46.708 33.0316 46.7576 32.4868C46.8068 31.9416 48.006 31.751 48.6597 31.8294C49.3127 31.9083 49.8021 32.4136 49.7525 32.9583C49.7033 33.5031 49.1336 33.881 48.4803 33.8021" fill="#FF7A7A"/>
<path fill-rule="evenodd" clip-rule="evenodd" d="M13.3701 40.297C13.9556 39.9314 15.3438 39.619 15.6795 39.9577C16.0152 40.296 15.1721 41.1569 14.5866 41.5232C14.0011 41.8888 13.2537 41.9109 12.9181 41.5723C12.5824 41.2339 12.785 40.663 13.3701 40.297" fill="#FF7A7A"/>
<path fill-rule="evenodd" clip-rule="evenodd" d="M11.6454 35.9435C12.2784 35.7067 13.5757 35.7775 13.7388 36.2659C13.9016 36.7551 12.8677 37.4766 12.2347 37.7138C11.6017 37.9506 10.9567 37.7467 10.7936 37.2575C10.6308 36.7691 11.012 36.1808 11.6454 35.9435" fill="#FF7A7A"/>
<path fill-rule="evenodd" clip-rule="evenodd" d="M10.9708 31.814C11.6235 31.8442 12.7738 32.4561 12.7558 33.0076C12.7381 33.5588 11.5591 33.8409 10.9064 33.8102C10.2537 33.7801 9.73909 33.3086 9.75641 32.7575C9.7741 32.2059 10.318 31.7838 10.9708 31.814" fill="#FF7A7A"/>
<path fill-rule="evenodd" clip-rule="evenodd" d="M16.3705 43.2972C16.9559 42.9312 18.3437 42.6192 18.6793 42.9575C19.0154 43.2962 18.172 44.157 17.5869 44.523C17.0014 44.8889 16.2541 44.9108 15.918 44.5724C15.5824 44.2341 15.785 43.6628 16.3705 43.2972" fill="#FF7A7A"/>
<path fill-rule="evenodd" clip-rule="evenodd" d="M15.756 12.3123C15.756 13.1406 15.0841 13.8125 14.2558 13.8125C13.4274 13.8125 12.756 13.1406 12.756 12.3123C12.756 11.4839 13.4274 10.8125 14.2558 10.8125C15.0841 10.8125 15.756 11.4839 15.756 12.3123" fill="#FFD9D9"/>
<path fill-rule="evenodd" clip-rule="evenodd" d="M46.756 48.8127C46.756 49.3651 46.3082 49.8125 45.7558 49.8125C45.2034 49.8125 44.756 49.3651 44.756 48.8127C44.756 48.2603 45.2034 47.8125 45.7558 47.8125C46.3082 47.8125 46.756 48.2603 46.756 48.8127" fill="#FFD9D9"/>
</svg>
