<svg width="93" height="47" viewBox="0 0 93 47" fill="none" xmlns="http://www.w3.org/2000/svg">
<path fill-rule="evenodd" clip-rule="evenodd" d="M0.612061 46.7422H45.6121V26.7422H0.612061V46.7422Z" fill="#FFB000"/>
<path fill-rule="evenodd" clip-rule="evenodd" d="M10.1143 32.875C10.1143 31.5096 9.00239 30.4033 7.63087 30.4033C6.26055 30.4033 5.14868 31.5096 5.14868 32.875C5.14868 34.2404 6.26055 35.3474 7.63087 35.3474C9.00239 35.3474 10.1143 34.2404 10.1143 32.875" fill="#FFD74F"/>
<path fill-rule="evenodd" clip-rule="evenodd" d="M18.7179 38.5607C18.7179 37.1953 17.606 36.0884 16.2345 36.0884C14.8636 36.0884 13.7517 37.1953 13.7517 38.5607C13.7517 39.9261 14.8636 41.0324 16.2345 41.0324C17.606 41.0324 18.7179 39.9261 18.7179 38.5607" fill="#FFD74F"/>
<path fill-rule="evenodd" clip-rule="evenodd" d="M10.1143 42.5158C10.1143 41.1504 9.00239 40.0435 7.63087 40.0435C6.26055 40.0435 5.14868 41.1504 5.14868 42.5158C5.14868 43.8812 6.26055 44.9875 7.63087 44.9875C9.00239 44.9875 10.1143 43.8812 10.1143 42.5158" fill="#FFD74F"/>
<path fill-rule="evenodd" clip-rule="evenodd" d="M23.8697 31.2686C23.8697 29.9032 22.7579 28.7969 21.3864 28.7969C20.0154 28.7969 18.9036 29.9032 18.9036 31.2686C18.9036 32.634 20.0154 33.7403 21.3864 33.7403C22.7579 33.7403 23.8697 32.634 23.8697 31.2686" fill="#FFD74F"/>
<path fill-rule="evenodd" clip-rule="evenodd" d="M40.4832 33.7403C40.4832 32.3755 39.3713 31.2686 37.9998 31.2686C36.6288 31.2686 35.517 32.3755 35.517 33.7403C35.517 35.1057 36.6288 36.2126 37.9998 36.2126C39.3713 36.2126 40.4832 35.1057 40.4832 33.7403" fill="#FFD74F"/>
<path fill-rule="evenodd" clip-rule="evenodd" d="M29.9774 40.3531C29.9774 38.9877 28.8656 37.8813 27.494 37.8813C26.1237 37.8813 25.0118 38.9877 25.0118 40.3531C25.0118 41.7185 26.1237 42.8254 27.494 42.8254C28.8656 42.8254 29.9774 41.7185 29.9774 40.3531" fill="#FFD74F"/>
<path fill-rule="evenodd" clip-rule="evenodd" d="M34.0121 27.1504H29.0465C29.0465 28.5152 30.1578 29.6221 31.5287 29.6221C32.9002 29.6221 34.0121 28.5152 34.0121 27.1504" fill="#FFD74F"/>
<path fill-rule="evenodd" clip-rule="evenodd" d="M39.8466 43.5041C39.8466 42.1386 38.7353 41.0317 37.3638 41.0317C35.9928 41.0317 34.881 42.1386 34.881 43.5041C34.881 44.8695 35.9928 45.9758 37.3638 45.9758C38.7353 45.9758 39.8466 44.8695 39.8466 43.5041" fill="#FFD74F"/>
<path fill-rule="evenodd" clip-rule="evenodd" d="M0.612061 27.1666H45.229L35.517 20.4619L0.612061 27.1666Z" fill="#FFD74F"/>
<mask id="mask0_4564_142" style="mask-type:luminance" maskUnits="userSpaceOnUse" x="0" y="0" width="93" height="47">
<path fill-rule="evenodd" clip-rule="evenodd" d="M0.612061 46.7421H92.5624V0H0.612061V46.7421Z" fill="white"/>
</mask>
<g mask="url(#mask0_4564_142)">
<path fill-rule="evenodd" clip-rule="evenodd" d="M47.946 46.7419H92.5624V27.167H47.946V46.7419Z" fill="#FFB000"/>
<path fill-rule="evenodd" clip-rule="evenodd" d="M60.5208 32.875C60.5208 31.5096 59.4089 30.4033 58.0374 30.4033C56.6664 30.4033 55.5552 31.5096 55.5552 32.875C55.5552 34.2404 56.6664 35.3474 58.0374 35.3474C59.4089 35.3474 60.5208 34.2404 60.5208 32.875" fill="#FFD74F"/>
<path fill-rule="evenodd" clip-rule="evenodd" d="M65.2883 43.0348C65.2883 41.6694 64.1771 40.5625 62.8055 40.5625C61.4346 40.5625 60.3228 41.6694 60.3228 43.0348C60.3228 44.4002 61.4346 45.5065 62.8055 45.5065C64.1771 45.5065 65.2883 44.4002 65.2883 43.0348" fill="#FFD74F"/>
<path fill-rule="evenodd" clip-rule="evenodd" d="M55.9747 40.0435C55.9747 38.6781 54.8629 37.5718 53.4913 37.5718C52.1204 37.5718 51.0085 38.6781 51.0085 40.0435C51.0085 41.4089 52.1204 42.5158 53.4913 42.5158C54.8629 42.5158 55.9747 41.4089 55.9747 40.0435" fill="#FFD74F"/>
<path fill-rule="evenodd" clip-rule="evenodd" d="M71.2032 31.2686C71.2032 29.9032 70.0914 28.7969 68.7205 28.7969C67.3495 28.7969 66.2377 29.9032 66.2377 31.2686C66.2377 32.634 67.3495 33.7403 68.7205 33.7403C70.0914 33.7403 71.2032 32.634 71.2032 31.2686" fill="#FFD74F"/>
<path fill-rule="evenodd" clip-rule="evenodd" d="M87.8167 33.7403C87.8167 32.3755 86.7048 31.2686 85.3339 31.2686C83.9629 31.2686 82.8511 32.3755 82.8511 33.7403C82.8511 35.1057 83.9629 36.2126 85.3339 36.2126C86.7048 36.2126 87.8167 35.1057 87.8167 33.7403" fill="#FFD74F"/>
<path fill-rule="evenodd" clip-rule="evenodd" d="M75.8213 40.0435C75.8213 38.6781 74.7094 37.5718 73.3385 37.5718C71.9676 37.5718 70.8557 38.6781 70.8557 40.0435C70.8557 41.4089 71.9676 42.5158 73.3385 42.5158C74.7094 42.5158 75.8213 41.4089 75.8213 40.0435" fill="#FFD74F"/>
<path fill-rule="evenodd" clip-rule="evenodd" d="M81.3455 27.1504H76.3799C76.3799 28.5152 77.4918 29.6221 78.8627 29.6221C80.2342 29.6221 81.3455 28.5152 81.3455 27.1504" fill="#FFD74F"/>
<path fill-rule="evenodd" clip-rule="evenodd" d="M87.1807 43.5041C87.1807 42.1386 86.0688 41.0317 84.6973 41.0317C83.3264 41.0317 82.2151 42.1386 82.2151 43.5041C82.2151 44.8695 83.3264 45.9758 84.6973 45.9758C86.0688 45.9758 87.1807 44.8695 87.1807 43.5041" fill="#FFD74F"/>
<path fill-rule="evenodd" clip-rule="evenodd" d="M47.9462 27.1666H92.5625L82.8511 20.4619L47.9462 27.1666Z" fill="#FFD74F"/>
<path fill-rule="evenodd" clip-rule="evenodd" d="M25.2081 26.1037H69.8251V6.52881H25.2081V26.1037Z" fill="#FFB000"/>
<path fill-rule="evenodd" clip-rule="evenodd" d="M65.2883 12.237C65.2883 10.8716 64.1771 9.76465 62.8055 9.76465C61.4346 9.76465 60.3228 10.8716 60.3228 12.237C60.3228 13.6024 61.4346 14.7093 62.8055 14.7093C64.1771 14.7093 65.2883 13.6024 65.2883 12.237" fill="#FFD74F"/>
<path fill-rule="evenodd" clip-rule="evenodd" d="M56.6852 17.9219C56.6852 16.5565 55.5733 15.4502 54.2018 15.4502C52.8309 15.4502 51.7196 16.5565 51.7196 17.9219C51.7196 19.2873 52.8309 20.3942 54.2018 20.3942C55.5733 20.3942 56.6852 19.2873 56.6852 17.9219" fill="#FFD74F"/>
<path fill-rule="evenodd" clip-rule="evenodd" d="M65.2883 21.8765C65.2883 20.5111 64.1771 19.4048 62.8055 19.4048C61.4346 19.4048 60.3228 20.5111 60.3228 21.8765C60.3228 23.2419 61.4346 24.3488 62.8055 24.3488C64.1771 24.3488 65.2883 23.2419 65.2883 21.8765" fill="#FFD74F"/>
<path fill-rule="evenodd" clip-rule="evenodd" d="M51.5328 10.6305C51.5328 9.26511 50.4216 8.1582 49.0501 8.1582C47.6791 8.1582 46.5673 9.26511 46.5673 10.6305C46.5673 11.9953 47.6791 13.1022 49.0501 13.1022C50.4216 13.1022 51.5328 11.9953 51.5328 10.6305" fill="#FFD74F"/>
<path fill-rule="evenodd" clip-rule="evenodd" d="M34.9199 13.1016C34.9199 11.7362 33.8081 10.6299 32.4365 10.6299C31.0656 10.6299 29.9543 11.7362 29.9543 13.1016C29.9543 14.467 31.0656 15.5739 32.4365 15.5739C33.8081 15.5739 34.9199 14.467 34.9199 13.1016" fill="#FFD74F"/>
<path fill-rule="evenodd" clip-rule="evenodd" d="M45.4252 19.7145C45.4252 18.3491 44.3139 17.2422 42.9424 17.2422C41.5715 17.2422 40.4596 18.3491 40.4596 19.7145C40.4596 21.0799 41.5715 22.1862 42.9424 22.1862C44.3139 22.1862 45.4252 21.0799 45.4252 19.7145" fill="#FFD74F"/>
<path fill-rule="evenodd" clip-rule="evenodd" d="M49.9995 23.6318C48.628 23.6318 47.5161 24.7381 47.5161 26.1036H52.4823C52.4823 24.7381 51.371 23.6318 49.9995 23.6318" fill="#FFD74F"/>
<path fill-rule="evenodd" clip-rule="evenodd" d="M41.3905 6.51123H36.4249C36.4249 7.87664 37.5368 8.98355 38.9077 8.98355C40.2792 8.98355 41.3905 7.87664 41.3905 6.51123" fill="#FFD74F"/>
<path fill-rule="evenodd" clip-rule="evenodd" d="M35.5559 22.8653C35.5559 21.4999 34.4446 20.3936 33.0731 20.3936C31.7022 20.3936 30.5903 21.4999 30.5903 22.8653C30.5903 24.2307 31.7022 25.3376 33.0731 25.3376C34.4446 25.3376 35.5559 24.2307 35.5559 22.8653" fill="#FFD74F"/>
<path fill-rule="evenodd" clip-rule="evenodd" d="M25.208 6.52818H69.825L31.6456 0L25.208 6.52818Z" fill="#FFD74F"/>
</g>
</svg>
