<svg width="26" height="79" viewBox="0 0 26 79" fill="none" xmlns="http://www.w3.org/2000/svg">
<mask id="mask0_4564_113" style="mask-type:luminance" maskUnits="userSpaceOnUse" x="0" y="8" width="26" height="71">
<path fill-rule="evenodd" clip-rule="evenodd" d="M0.562378 8.05615H25.4514V78.916H0.562378V8.05615Z" fill="white"/>
</mask>
<g mask="url(#mask0_4564_113)">
<path fill-rule="evenodd" clip-rule="evenodd" d="M1.56464 67.3281C-0.683439 52.6765 0.760792 23.6643 6.8063 13.945C14.1634 2.11425 23.7941 9.93256 22.2646 21.3648C20.4063 35.2687 21.0287 49.7258 24.9493 64.3812C29.2518 80.4733 4.59861 85.5987 1.56464 67.3281" fill="#239130"/>
</g>
<path fill-rule="evenodd" clip-rule="evenodd" d="M15.425 8.40663C15.425 8.40663 7.83615 8.25918 7.56226 3.37382C7.56226 3.37382 10.7617 2.75264 12.3159 3.99626C13.8708 5.23862 14.5103 6.21619 14.5103 6.21619C14.5103 6.21619 13.0472 3.81869 16.5218 0C16.5218 0 19.4481 3.46292 17.0709 6.92647C17.0709 6.92647 20.6354 4.43987 23.5623 7.19251C23.5623 7.19251 21.5404 10.2557 15.425 8.40663" fill="#FFC82C"/>
<path fill-rule="evenodd" clip-rule="evenodd" d="M1.56226 69.4161C1.56226 69.4161 6.33767 76.3532 9.52692 75.783C9.52692 75.783 6.32009 64.9958 8.49423 55C8.49423 55 8.53525 74.0872 14.0028 75.8491C14.0028 75.8491 16.7213 66.7095 15.7967 60.4266C15.7967 60.4266 18.2977 71.5429 17.8373 75.8067C17.8373 75.8067 19.82 76.6303 24.5623 72.1432C24.5623 72.1432 22.4298 78.5313 13.8596 78.9956C13.8596 78.9956 4.4891 79.5081 1.56226 69.4161" fill="#64CC5C"/>
<path fill-rule="evenodd" clip-rule="evenodd" d="M7.56226 41C7.56226 42.1043 7.11432 43 6.56254 43C6.01019 43 5.56226 42.1043 5.56226 41C5.56226 39.8951 6.01019 39 6.56254 39C7.11432 39 7.56226 39.8951 7.56226 41" fill="#64CC5C"/>
<path fill-rule="evenodd" clip-rule="evenodd" d="M14.5623 46.9994C14.5623 48.1043 14.1149 49 13.5631 49C13.0102 49 12.5623 48.1043 12.5623 46.9994C12.5623 45.8951 13.0102 45 13.5631 45C14.1149 45 14.5623 45.8951 14.5623 46.9994" fill="#64CC5C"/>
<path fill-rule="evenodd" clip-rule="evenodd" d="M6.56226 55.9994C6.56226 57.1043 6.11432 58 5.56254 58C5.01019 58 4.56226 57.1043 4.56226 55.9994C4.56226 54.8951 5.01019 54 5.56254 54C6.11432 54 6.56226 54.8951 6.56226 55.9994" fill="#64CC5C"/>
<path fill-rule="evenodd" clip-rule="evenodd" d="M13.5623 62C13.5623 63.1049 13.1143 64 12.5625 64C12.0102 64 11.5623 63.1049 11.5623 62C11.5623 60.8951 12.0102 60 12.5625 60C13.1143 60 13.5623 60.8951 13.5623 62" fill="#64CC5C"/>
<path fill-rule="evenodd" clip-rule="evenodd" d="M21.5623 57.0003C21.5623 58.1044 21.1154 59 20.5631 59C20.0108 59 19.5623 58.1044 19.5623 57.0003C19.5623 55.8956 20.0108 55 20.5631 55C21.1154 55 21.5623 55.8956 21.5623 57.0003" fill="#64CC5C"/>
<path fill-rule="evenodd" clip-rule="evenodd" d="M18.5623 37C18.5623 38.1049 18.1138 39 17.562 39C17.0096 39 16.5623 38.1049 16.5623 37C16.5623 35.8957 17.0096 35 17.562 35C18.1138 35 18.5623 35.8957 18.5623 37" fill="#64CC5C"/>
<path fill-rule="evenodd" clip-rule="evenodd" d="M9.56226 28.9994C9.56226 30.1043 9.11432 31 8.56254 31C8.01019 31 7.56226 30.1043 7.56226 28.9994C7.56226 27.8951 8.01019 27 8.56254 27C9.11432 27 9.56226 27.8951 9.56226 28.9994" fill="#64CC5C"/>
<path fill-rule="evenodd" clip-rule="evenodd" d="M17.5623 20.9997C17.5623 22.1044 17.1148 23 16.5628 23C16.0103 23 15.5623 22.1044 15.5623 20.9997C15.5623 19.8956 16.0103 19 16.5628 19C17.1148 19 17.5623 19.8956 17.5623 20.9997" fill="#64CC5C"/>
<path fill-rule="evenodd" clip-rule="evenodd" d="M12.5623 14C12.5623 15.1049 12.1148 16 11.5623 16C11.0098 16 10.5623 15.1049 10.5623 14C10.5623 12.8951 11.0098 12 11.5623 12C12.1148 12 12.5623 12.8951 12.5623 14" fill="#64CC5C"/>
<path fill-rule="evenodd" clip-rule="evenodd" d="M23.5623 70C23.5623 71.1043 23.1143 72 22.562 72C22.0096 72 21.5623 71.1043 21.5623 70C21.5623 68.8951 22.0096 68 22.562 68C23.1143 68 23.5623 68.8951 23.5623 70" fill="#64CC5C"/>
</svg>
