<svg width="37" height="67" viewBox="0 0 37 67" fill="none" xmlns="http://www.w3.org/2000/svg">
<path fill-rule="evenodd" clip-rule="evenodd" d="M28.0931 16.8451V16.8451C28.5746 17.0669 29.0877 17.0483 29.2379 16.8035L36.4095 6.99914C36.5602 6.75439 36.2919 6.37627 35.81 6.15494C35.3281 5.93314 34.8154 5.95178 34.6652 6.19605L27.4931 16.0014C27.3429 16.2457 27.6112 16.6233 28.0931 16.8451" fill="#39B54A"/>
<path fill-rule="evenodd" clip-rule="evenodd" d="M25.1209 15.8574V15.8574C25.6019 16.0762 26.0942 16.0389 26.2208 15.7749L32.4213 4.01839C32.5484 3.75431 32.262 3.36243 31.782 3.14312C31.3015 2.9238 30.8093 2.9606 30.6822 3.22567L24.4812 14.9816C24.3551 15.2462 24.6409 15.6381 25.1209 15.8574" fill="#39B54A"/>
<path fill-rule="evenodd" clip-rule="evenodd" d="M22.229 14.8849V14.8849C22.7454 15.0837 23.2437 15.0186 23.3408 14.7392L27.4347 1.98219C27.5323 1.70236 27.1916 1.31419 26.6747 1.11488C26.1578 0.916572 25.66 0.981184 25.5624 1.26101L21.4679 14.0181C21.3709 14.2974 21.7116 14.6861 22.229 14.8849" fill="#8DC63F"/>
<path fill-rule="evenodd" clip-rule="evenodd" d="M19.2558 13.8996V13.8996C19.7657 14.0886 20.2351 14.003 20.305 13.7081L22.4426 0.974773C22.5126 0.680405 22.1566 0.288252 21.6472 0.100282C21.1377 -0.0887018 20.6683 -0.00256994 20.5979 0.291292L18.4603 13.0251C18.3899 13.3195 18.7463 13.7116 19.2558 13.8996" fill="#8DC63F"/>
<path fill-rule="evenodd" clip-rule="evenodd" d="M2.64071 66.7444H2.6412C4.28085 67.4048 6.15789 66.7473 7.01883 65.2114L32.7315 22.585C34.3932 19.6208 33.0663 15.8803 29.9015 14.6071L19.488 10.4153C16.3144 9.13818 12.7336 10.9197 11.8619 14.2098L0.567405 62.6304C0.118581 64.3248 1.00644 66.0864 2.64071 66.7444" fill="#F23D0C"/>
<path fill-rule="evenodd" clip-rule="evenodd" d="M19.8976 10.4169L25.4514 12.6138L2.80081 67C2.76281 66.9878 2.72532 66.9766 2.68832 66.9609H2.68782C1.01838 66.3009 0.111419 64.5326 0.569901 62.8313L12.1074 14.2263C12.9979 10.9232 16.6563 9.13489 19.8976 10.4169" fill="#FF7915"/>
<path fill-rule="evenodd" clip-rule="evenodd" d="M18.312 17.1204C20.7887 18.1117 22.6354 19.3093 22.4368 19.7957C22.2376 20.2815 20.0675 19.8713 17.5903 18.879C15.1136 17.8873 13.2674 16.6896 13.4661 16.2043C13.6652 15.7184 15.8343 16.1291 18.312 17.1204" fill="#F23D0C"/>
<path fill-rule="evenodd" clip-rule="evenodd" d="M14.312 33.1205C16.7897 34.1117 18.6354 35.3094 18.4368 35.7957C18.2371 36.2816 16.068 35.8709 13.5913 34.8796C11.1136 33.8873 9.2674 32.6897 9.46606 32.2043C9.66573 31.7185 11.8348 32.1287 14.312 33.1205" fill="#F23D0C"/>
<path fill-rule="evenodd" clip-rule="evenodd" d="M10.3115 47.1203C12.7887 48.1121 14.6354 49.3102 14.4368 49.7955C14.2376 50.2819 12.0675 49.8707 9.59037 48.8799C7.11369 47.8877 5.26696 46.6906 5.46613 46.2042C5.66529 45.7184 7.83435 46.1291 10.3115 47.1203" fill="#F23D0C"/>
<path fill-rule="evenodd" clip-rule="evenodd" d="M20.3122 26.1207C22.7893 27.1119 24.6354 28.3101 24.4368 28.796C24.2371 29.2813 22.0681 28.8711 19.5911 27.8798C17.114 26.8875 15.2678 25.6904 15.466 25.204C15.6657 24.7187 17.8351 25.1289 20.3122 26.1207" fill="#FF7915"/>
<path fill-rule="evenodd" clip-rule="evenodd" d="M12.312 40.1205C14.7892 41.1118 16.6354 42.3098 16.4368 42.7957C16.2376 43.2815 14.068 42.8713 11.5909 41.8791C9.11369 40.8874 7.26696 39.6903 7.46613 39.2045C7.66529 38.7181 9.83485 39.1293 12.312 40.1205" fill="#FF7915"/>
<path fill-rule="evenodd" clip-rule="evenodd" d="M6.45909 54.9782C8.84871 56.0185 10.6293 57.2759 10.4372 57.7853C10.2451 58.2957 8.15318 57.8647 5.76405 56.8239C3.37443 55.783 3.32946 54.7874 3.52155 54.278C3.71364 53.7676 4.06996 53.9369 6.45909 54.9782" fill="#FF7915"/>
</svg>
